<mxfile host="app.diagrams.net" agent="Mozilla/5.0 (Windows NT 10.0; Win64; x64) AppleWebKit/537.36 (KHTML, like Gecko) Chrome/135.0.0.0 Safari/537.36 Edg/135.0.0.0" version="26.2.12">
  <diagram name="Página-1" id="9XZ5C3n_m1ySWpzXsAz9">
    <mxGraphModel dx="1036" dy="570" grid="1" gridSize="10" guides="1" tooltips="1" connect="1" arrows="1" fold="1" page="1" pageScale="1" pageWidth="827" pageHeight="1169" math="0" shadow="0">
      <root>
        <mxCell id="0" />
        <mxCell id="1" parent="0" />
        <mxCell id="SXvOgEHGXTYOd4jjbknG-3" value="&lt;div&gt;Spring Cloud API&lt;/div&gt;(API gateway)&lt;div&gt;porta:8083&lt;/div&gt;" style="rounded=0;whiteSpace=wrap;html=1;" parent="1" vertex="1">
          <mxGeometry x="500" y="260" width="170" height="60" as="geometry" />
        </mxCell>
        <mxCell id="SXvOgEHGXTYOd4jjbknG-4" value="Eureka Server&lt;div&gt;(Service Discovery)&lt;/div&gt;&lt;div&gt;porta:8761&lt;/div&gt;" style="rounded=0;whiteSpace=wrap;html=1;" parent="1" vertex="1">
          <mxGeometry x="780" y="260" width="170" height="60" as="geometry" />
        </mxCell>
        <mxCell id="SXvOgEHGXTYOd4jjbknG-5" value="ola-api&lt;div&gt;porta:8082&lt;/div&gt;" style="rounded=0;whiteSpace=wrap;html=1;" parent="1" vertex="1">
          <mxGeometry x="1110" y="100" width="170" height="60" as="geometry" />
        </mxCell>
        <mxCell id="SXvOgEHGXTYOd4jjbknG-6" value="hello-api&lt;div&gt;porta:8081&lt;/div&gt;" style="rounded=0;whiteSpace=wrap;html=1;" parent="1" vertex="1">
          <mxGeometry x="1110" y="210" width="170" height="60" as="geometry" />
        </mxCell>
        <mxCell id="SXvOgEHGXTYOd4jjbknG-7" value="Envio de Emails&lt;div&gt;porta: 8084&lt;/div&gt;" style="rounded=0;whiteSpace=wrap;html=1;" parent="1" vertex="1">
          <mxGeometry x="1110" y="330" width="170" height="60" as="geometry" />
        </mxCell>
        <mxCell id="SXvOgEHGXTYOd4jjbknG-8" value="Cliente" style="shape=umlActor;verticalLabelPosition=bottom;verticalAlign=top;html=1;outlineConnect=0;" parent="1" vertex="1">
          <mxGeometry x="320" y="260" width="30" height="60" as="geometry" />
        </mxCell>
        <mxCell id="SXvOgEHGXTYOd4jjbknG-9" value="Gerenciamento de usuários&lt;div&gt;porta: 8086&lt;/div&gt;" style="rounded=0;whiteSpace=wrap;html=1;" parent="1" vertex="1">
          <mxGeometry x="1110" y="440" width="170" height="60" as="geometry" />
        </mxCell>
        <mxCell id="SXvOgEHGXTYOd4jjbknG-10" value="" style="endArrow=none;html=1;rounded=0;entryX=0;entryY=0.5;entryDx=0;entryDy=0;" parent="1" target="SXvOgEHGXTYOd4jjbknG-5" edge="1">
          <mxGeometry width="50" height="50" relative="1" as="geometry">
            <mxPoint x="910" y="260" as="sourcePoint" />
            <mxPoint x="960" y="270" as="targetPoint" />
            <Array as="points">
              <mxPoint x="910" y="130" />
            </Array>
          </mxGeometry>
        </mxCell>
        <mxCell id="SXvOgEHGXTYOd4jjbknG-11" value="" style="endArrow=none;html=1;rounded=0;entryX=0;entryY=0.5;entryDx=0;entryDy=0;" parent="1" target="SXvOgEHGXTYOd4jjbknG-6" edge="1">
          <mxGeometry width="50" height="50" relative="1" as="geometry">
            <mxPoint x="942" y="260" as="sourcePoint" />
            <mxPoint x="960" y="270" as="targetPoint" />
            <Array as="points">
              <mxPoint x="942" y="240" />
            </Array>
          </mxGeometry>
        </mxCell>
        <mxCell id="SXvOgEHGXTYOd4jjbknG-12" value="" style="endArrow=none;html=1;rounded=0;entryX=0;entryY=0.5;entryDx=0;entryDy=0;" parent="1" target="SXvOgEHGXTYOd4jjbknG-7" edge="1">
          <mxGeometry width="50" height="50" relative="1" as="geometry">
            <mxPoint x="910" y="320" as="sourcePoint" />
            <mxPoint x="910" y="400" as="targetPoint" />
            <Array as="points">
              <mxPoint x="910" y="360" />
            </Array>
          </mxGeometry>
        </mxCell>
        <mxCell id="SXvOgEHGXTYOd4jjbknG-13" value="" style="endArrow=none;html=1;rounded=0;entryX=0.708;entryY=1.06;entryDx=0;entryDy=0;entryPerimeter=0;exitX=0;exitY=0.5;exitDx=0;exitDy=0;" parent="1" source="SXvOgEHGXTYOd4jjbknG-9" target="SXvOgEHGXTYOd4jjbknG-4" edge="1">
          <mxGeometry width="50" height="50" relative="1" as="geometry">
            <mxPoint x="910" y="420" as="sourcePoint" />
            <mxPoint x="960" y="370" as="targetPoint" />
            <Array as="points">
              <mxPoint x="900" y="470" />
            </Array>
          </mxGeometry>
        </mxCell>
        <mxCell id="SXvOgEHGXTYOd4jjbknG-15" value="RabbitMQ&lt;div&gt;(Message Broker)&lt;/div&gt;" style="rounded=0;whiteSpace=wrap;html=1;" parent="1" vertex="1">
          <mxGeometry x="1420" y="280" width="170" height="60" as="geometry" />
        </mxCell>
        <mxCell id="SXvOgEHGXTYOd4jjbknG-16" value="" style="endArrow=none;html=1;rounded=0;entryX=1;entryY=0.5;entryDx=0;entryDy=0;" parent="1" source="SXvOgEHGXTYOd4jjbknG-15" target="SXvOgEHGXTYOd4jjbknG-5" edge="1">
          <mxGeometry width="50" height="50" relative="1" as="geometry">
            <mxPoint x="910" y="420" as="sourcePoint" />
            <mxPoint x="960" y="370" as="targetPoint" />
          </mxGeometry>
        </mxCell>
        <mxCell id="SXvOgEHGXTYOd4jjbknG-17" value="" style="endArrow=none;html=1;rounded=0;entryX=1;entryY=0.5;entryDx=0;entryDy=0;exitX=0;exitY=0.5;exitDx=0;exitDy=0;" parent="1" source="SXvOgEHGXTYOd4jjbknG-15" target="SXvOgEHGXTYOd4jjbknG-6" edge="1">
          <mxGeometry width="50" height="50" relative="1" as="geometry">
            <mxPoint x="1000" y="420" as="sourcePoint" />
            <mxPoint x="1050" y="370" as="targetPoint" />
          </mxGeometry>
        </mxCell>
        <mxCell id="SXvOgEHGXTYOd4jjbknG-18" value="" style="endArrow=none;html=1;rounded=0;exitX=1;exitY=0.5;exitDx=0;exitDy=0;" parent="1" source="SXvOgEHGXTYOd4jjbknG-7" target="SXvOgEHGXTYOd4jjbknG-15" edge="1">
          <mxGeometry width="50" height="50" relative="1" as="geometry">
            <mxPoint x="1250" y="360" as="sourcePoint" />
            <mxPoint x="1050" y="370" as="targetPoint" />
          </mxGeometry>
        </mxCell>
        <mxCell id="SXvOgEHGXTYOd4jjbknG-19" value="" style="endArrow=none;html=1;rounded=0;entryX=0.25;entryY=1;entryDx=0;entryDy=0;exitX=1;exitY=0.5;exitDx=0;exitDy=0;" parent="1" source="SXvOgEHGXTYOd4jjbknG-9" target="SXvOgEHGXTYOd4jjbknG-15" edge="1">
          <mxGeometry width="50" height="50" relative="1" as="geometry">
            <mxPoint x="1000" y="420" as="sourcePoint" />
            <mxPoint x="1050" y="370" as="targetPoint" />
          </mxGeometry>
        </mxCell>
        <mxCell id="SXvOgEHGXTYOd4jjbknG-20" value="" style="endArrow=none;html=1;rounded=0;entryX=1;entryY=0.5;entryDx=0;entryDy=0;" parent="1" source="SXvOgEHGXTYOd4jjbknG-4" target="SXvOgEHGXTYOd4jjbknG-3" edge="1">
          <mxGeometry width="50" height="50" relative="1" as="geometry">
            <mxPoint x="1000" y="420" as="sourcePoint" />
            <mxPoint x="1050" y="370" as="targetPoint" />
          </mxGeometry>
        </mxCell>
        <mxCell id="SXvOgEHGXTYOd4jjbknG-21" value="" style="endArrow=none;html=1;rounded=0;entryX=0;entryY=0.5;entryDx=0;entryDy=0;" parent="1" source="SXvOgEHGXTYOd4jjbknG-8" target="SXvOgEHGXTYOd4jjbknG-3" edge="1">
          <mxGeometry width="50" height="50" relative="1" as="geometry">
            <mxPoint x="1000" y="420" as="sourcePoint" />
            <mxPoint x="1050" y="370" as="targetPoint" />
          </mxGeometry>
        </mxCell>
        <mxCell id="SXvOgEHGXTYOd4jjbknG-22" value="" style="endArrow=none;html=1;rounded=0;entryX=0.5;entryY=1;entryDx=0;entryDy=0;exitX=0.5;exitY=0;exitDx=0;exitDy=0;" parent="1" source="SXvOgEHGXTYOd4jjbknG-9" target="SXvOgEHGXTYOd4jjbknG-7" edge="1">
          <mxGeometry width="50" height="50" relative="1" as="geometry">
            <mxPoint x="740" y="370" as="sourcePoint" />
            <mxPoint x="790" y="320" as="targetPoint" />
          </mxGeometry>
        </mxCell>
        <mxCell id="79ly_hIGjiZ-eM1qaHne-2" value="Gerenciamento de produtos&lt;div&gt;porta: 8088&lt;/div&gt;" style="rounded=0;whiteSpace=wrap;html=1;" parent="1" vertex="1">
          <mxGeometry x="1110" y="554.5" width="170" height="60" as="geometry" />
        </mxCell>
        <mxCell id="79ly_hIGjiZ-eM1qaHne-3" value="Gerenciamento de estoque&lt;div&gt;porta: 8089&lt;/div&gt;" style="rounded=0;whiteSpace=wrap;html=1;" parent="1" vertex="1">
          <mxGeometry x="1110" y="670" width="170" height="60" as="geometry" />
        </mxCell>
        <mxCell id="WZdBxkwOmdgOHtvY03P8-1" value="Gerenciamento de compras&lt;div&gt;porta a definir&lt;/div&gt;" style="rounded=0;whiteSpace=wrap;html=1;" parent="1" vertex="1">
          <mxGeometry x="760" y="585" width="170" height="60" as="geometry" />
        </mxCell>
        <mxCell id="WZdBxkwOmdgOHtvY03P8-2" value="" style="endArrow=none;html=1;rounded=0;exitX=1;exitY=0.25;exitDx=0;exitDy=0;" parent="1" source="WZdBxkwOmdgOHtvY03P8-1" target="SXvOgEHGXTYOd4jjbknG-9" edge="1">
          <mxGeometry width="50" height="50" relative="1" as="geometry">
            <mxPoint x="870" y="490" as="sourcePoint" />
            <mxPoint x="920" y="440" as="targetPoint" />
          </mxGeometry>
        </mxCell>
        <mxCell id="WZdBxkwOmdgOHtvY03P8-3" value="" style="endArrow=none;html=1;rounded=0;" parent="1" source="WZdBxkwOmdgOHtvY03P8-1" target="79ly_hIGjiZ-eM1qaHne-2" edge="1">
          <mxGeometry width="50" height="50" relative="1" as="geometry">
            <mxPoint x="940" y="610" as="sourcePoint" />
            <mxPoint x="1144" y="510" as="targetPoint" />
          </mxGeometry>
        </mxCell>
        <mxCell id="WZdBxkwOmdgOHtvY03P8-4" value="" style="endArrow=none;html=1;rounded=0;exitX=1;exitY=0.75;exitDx=0;exitDy=0;" parent="1" source="WZdBxkwOmdgOHtvY03P8-1" target="79ly_hIGjiZ-eM1qaHne-3" edge="1">
          <mxGeometry width="50" height="50" relative="1" as="geometry">
            <mxPoint x="940" y="618" as="sourcePoint" />
            <mxPoint x="1120" y="602" as="targetPoint" />
          </mxGeometry>
        </mxCell>
        <mxCell id="WQ1IKdl3g1OBM4P0hJcJ-1" value="" style="endArrow=none;html=1;rounded=0;exitX=0.5;exitY=0;exitDx=0;exitDy=0;" parent="1" source="79ly_hIGjiZ-eM1qaHne-3" target="79ly_hIGjiZ-eM1qaHne-2" edge="1">
          <mxGeometry width="50" height="50" relative="1" as="geometry">
            <mxPoint x="1070" y="670" as="sourcePoint" />
            <mxPoint x="1120" y="620" as="targetPoint" />
          </mxGeometry>
        </mxCell>
        <mxCell id="9XdoG9rzvG0gxXAqEYyh-2" value="Gerenciamento de pedidos&lt;div&gt;porta: 8090&lt;/div&gt;" style="rounded=0;whiteSpace=wrap;html=1;" vertex="1" parent="1">
          <mxGeometry x="1110" y="770" width="170" height="60" as="geometry" />
        </mxCell>
        <mxCell id="9XdoG9rzvG0gxXAqEYyh-3" value="Gerenciamento de vendas&lt;div&gt;&lt;div&gt;&lt;div&gt;porta: 8094&lt;/div&gt;&lt;/div&gt;&lt;/div&gt;" style="rounded=0;whiteSpace=wrap;html=1;" vertex="1" parent="1">
          <mxGeometry x="1110" y="860" width="170" height="60" as="geometry" />
        </mxCell>
      </root>
    </mxGraphModel>
  </diagram>
</mxfile>
